<?xml version="1.0" encoding="UTF-8"?>
<svg width="512" height="512" viewBox="0 0 512 512" xmlns="http://www.w3.org/2000/svg" role="img" aria-label="UPI QR code (stylized)">
  <rect width="100%" height="100%" fill="#fff"/>
  <g fill="#0b0b0b">
    <rect x="32" y="32" width="112" height="112" rx="8"/>
    <rect x="368" y="32" width="112" height="112" rx="8"/>
    <rect x="32" y="368" width="112" height="112" rx="8"/>
    <rect x="56" y="56" width="64" height="64" fill="#fff"/>
    <rect x="392" y="56" width="64" height="64" fill="#fff"/>
    <rect x="56" y="392" width="64" height="64" fill="#fff"/>
    <rect x="200" y="64" width="16" height="16"/>
    <rect x="224" y="64" width="16" height="48"/>
    <rect x="248" y="96" width="16" height="16"/>
    <rect x="176" y="120" width="16" height="16"/>
    <rect x="240" y="168" width="16" height="16"/>
    <rect x="296" y="160" width="16" height="16"/>
    <rect x="320" y="120" width="16" height="16"/>
    <rect x="160" y="200" width="16" height="16"/>
    <rect x="184" y="224" width="16" height="16"/>
    <rect x="208" y="248" width="16" height="16"/>
    <rect x="232" y="272" width="16" height="16"/>
    <rect x="280" y="280" width="16" height="16"/>
    <rect x="312" y="328" width="16" height="16"/>
    <rect x="344" y="200" width="16" height="16"/>
    <rect x="368" y="232" width="16" height="16"/>
    <rect x="120" y="312" width="16" height="16"/>
    <rect x="144" y="344" width="16" height="16"/>
    <rect x="208" y="360" width="16" height="16"/>
    <rect x="256" y="320" width="16" height="16"/>
    <rect x="288" y="312" width="16" height="16"/>
  </g>
  <g>
    <text x="50%" y="465" text-anchor="middle" fill="#6b6b6b" font-family="sans-serif" font-size="18">Scan to donate • lightseeker@upi</text>
  </g>
</svg>